<svg width="200" height="300" viewBox="0 0 200 300" fill="none" xmlns="http://www.w3.org/2000/svg">
<rect width="170" height="300" rx="20" fill="white"/>
<g style="mix-blend-mode:darken" opacity="0.5">
<path d="M11.05 3L158.525 3L165.325 10.5L166.723 18.5V48H2.6729V18.5L4.67501 9L11.05 3Z" fill="black"/>
<rect x="2.55" y="46" width="164.05" height="44" fill="white"/>
<rect x="2.55" y="90" width="164.05" height="43" fill="#00BC29"/>
<path d="M78.2 68L2.97501 132.952V21L78.2 68Z" fill="#FF2929"/>
</g>
<path d="M3 123.971C3 122.878 3.87792 121.987 4.97111 121.972L139.421 120.029C140.537 120.013 141.45 120.913 141.45 122.029V135.543C141.45 136.631 140.581 137.519 139.493 137.542L5.04333 140.456C3.92206 140.48 3 139.578 3 138.456V123.971Z" fill="black"/>
<path d="M12.5416 134.5V123.591H16.8456C17.673 123.591 18.3779 123.749 18.9603 124.065C19.5427 124.377 19.9866 124.812 20.292 125.37C20.6009 125.924 20.7554 126.563 20.7554 127.288C20.7554 128.012 20.5991 128.651 20.2866 129.205C19.9741 129.759 19.5214 130.191 18.9283 130.5C18.3388 130.809 17.6251 130.963 16.787 130.963H14.0437V129.115H16.4141C16.858 129.115 17.2238 129.038 17.5114 128.886C17.8026 128.729 18.0192 128.515 18.1613 128.241C18.3069 127.964 18.3797 127.646 18.3797 127.288C18.3797 126.925 18.3069 126.609 18.1613 126.339C18.0192 126.066 17.8026 125.855 17.5114 125.706C17.2202 125.553 16.8509 125.477 16.4035 125.477H14.8481V134.5H12.5416ZM22.2109 134.5V126.318H24.4108V127.746H24.4961C24.6452 127.238 24.8956 126.854 25.2471 126.595C25.5987 126.332 26.0035 126.201 26.4616 126.201C26.5753 126.201 26.6978 126.208 26.8292 126.222C26.9606 126.237 27.076 126.256 27.1754 126.281V128.294C27.0689 128.262 26.9215 128.234 26.7333 128.209C26.5451 128.184 26.3728 128.172 26.2166 128.172C25.8828 128.172 25.5845 128.245 25.3217 128.39C25.0625 128.532 24.8565 128.731 24.7038 128.987C24.5547 129.243 24.4801 129.537 24.4801 129.871V134.5H22.2109ZM31.6645 134.66C30.8371 134.66 30.1215 134.484 29.5178 134.132C28.9177 133.777 28.4543 133.284 28.1275 132.652C27.8008 132.016 27.6375 131.279 27.6375 130.441C27.6375 129.596 27.8008 128.857 28.1275 128.225C28.4543 127.589 28.9177 127.096 29.5178 126.744C30.1215 126.389 30.8371 126.212 31.6645 126.212C32.4919 126.212 33.2057 126.389 33.8058 126.744C34.4095 127.096 34.8747 127.589 35.2014 128.225C35.5281 128.857 35.6915 129.596 35.6915 130.441C35.6915 131.279 35.5281 132.016 35.2014 132.652C34.8747 133.284 34.4095 133.777 33.8058 134.132C33.2057 134.484 32.4919 134.66 31.6645 134.66ZM31.6751 132.902C32.0516 132.902 32.3658 132.795 32.618 132.582C32.8701 132.366 33.0601 132.071 33.1879 131.698C33.3193 131.325 33.385 130.901 33.385 130.425C33.385 129.949 33.3193 129.525 33.1879 129.152C33.0601 128.779 32.8701 128.484 32.618 128.268C32.3658 128.051 32.0516 127.943 31.6751 127.943C31.2952 127.943 30.9756 128.051 30.7163 128.268C30.4606 128.484 30.2671 128.779 30.1357 129.152C30.0079 129.525 29.944 129.949 29.944 130.425C29.944 130.901 30.0079 131.325 30.1357 131.698C30.2671 132.071 30.4606 132.366 30.7163 132.582C30.9756 132.795 31.2952 132.902 31.6751 132.902ZM37.167 126.318H39.4361V134.905C39.4361 135.537 39.3119 136.048 39.0633 136.439C38.8147 136.83 38.4578 137.115 37.9926 137.297C37.531 137.478 36.9788 137.568 36.336 137.568C36.2579 137.568 36.1833 137.566 36.1123 137.563C36.0377 137.563 35.9596 137.561 35.8779 137.558V135.784C35.9383 135.787 35.9915 135.789 36.0377 135.789C36.0803 135.793 36.1265 135.794 36.1762 135.794C36.542 135.794 36.7976 135.716 36.9432 135.56C37.0924 135.407 37.167 135.176 37.167 134.868V126.318ZM38.2962 125.263C37.9624 125.263 37.6748 125.152 37.4333 124.928C37.1918 124.701 37.0711 124.429 37.0711 124.113C37.0711 123.8 37.1918 123.532 37.4333 123.309C37.6748 123.081 37.9624 122.968 38.2962 122.968C38.6371 122.968 38.9266 123.081 39.1645 123.309C39.406 123.532 39.5267 123.8 39.5267 124.113C39.5267 124.429 39.406 124.701 39.1645 124.928C38.9266 125.152 38.6371 125.263 38.2962 125.263ZM44.9826 134.66C44.141 134.66 43.4165 134.489 42.8093 134.148C42.2056 133.804 41.7404 133.317 41.4137 132.689C41.087 132.057 40.9236 131.309 40.9236 130.446C40.9236 129.605 41.087 128.866 41.4137 128.23C41.7404 127.595 42.2003 127.099 42.7933 126.744C43.3899 126.389 44.0895 126.212 44.892 126.212C45.4318 126.212 45.9343 126.299 46.3995 126.473C46.8682 126.643 47.2766 126.901 47.6246 127.245C47.9762 127.589 48.2496 128.023 48.4449 128.545C48.6402 129.063 48.7379 129.67 48.7379 130.366V130.99H41.8292V129.583H46.6019C46.6019 129.257 46.5309 128.967 46.3888 128.715C46.2468 128.463 46.0497 128.266 45.7976 128.124C45.549 127.978 45.2596 127.906 44.9293 127.906C44.5848 127.906 44.2794 127.985 44.0131 128.145C43.7503 128.301 43.5444 128.513 43.3952 128.779C43.2461 129.042 43.1697 129.335 43.1662 129.658V130.995C43.1662 131.4 43.2407 131.75 43.3899 132.044C43.5426 132.339 43.7574 132.566 44.0344 132.726C44.3114 132.886 44.6399 132.966 45.0199 132.966C45.272 132.966 45.5028 132.93 45.7123 132.859C45.9218 132.788 46.1012 132.682 46.2503 132.54C46.3995 132.398 46.5131 132.224 46.5912 132.018L48.69 132.156C48.5834 132.661 48.365 133.101 48.0348 133.477C47.7081 133.85 47.2855 134.141 46.767 134.351C46.2521 134.557 45.6573 134.66 44.9826 134.66ZM53.9155 134.66C53.0774 134.66 52.3565 134.482 51.7528 134.127C51.1527 133.768 50.691 133.271 50.3679 132.636C50.0483 132 49.8885 131.268 49.8885 130.441C49.8885 129.603 50.05 128.868 50.3732 128.236C50.6999 127.6 51.1633 127.105 51.7635 126.75C52.3636 126.391 53.0774 126.212 53.9048 126.212C54.6186 126.212 55.2436 126.341 55.7798 126.6C56.316 126.86 56.7404 127.224 57.0529 127.692C57.3654 128.161 57.5376 128.712 57.5696 129.344H55.4282C55.3679 128.935 55.2081 128.607 54.9488 128.358C54.6932 128.106 54.3576 127.98 53.9421 127.98C53.5905 127.98 53.2834 128.076 53.0206 128.268C52.7613 128.456 52.5589 128.731 52.4133 129.093C52.2677 129.456 52.1949 129.894 52.1949 130.409C52.1949 130.931 52.266 131.375 52.408 131.741C52.5536 132.107 52.7578 132.385 53.0206 132.577C53.2834 132.769 53.5905 132.865 53.9421 132.865C54.2013 132.865 54.4339 132.811 54.6399 132.705C54.8494 132.598 55.0216 132.444 55.1566 132.241C55.2951 132.036 55.3856 131.789 55.4282 131.501H57.5696C57.5341 132.126 57.3636 132.676 57.0582 133.152C56.7564 133.625 56.3391 133.994 55.8064 134.26C55.2738 134.527 54.6434 134.66 53.9155 134.66ZM63.3744 126.318V128.023H58.4472V126.318H63.3744ZM59.5658 124.358H61.8349V131.986C61.8349 132.195 61.8669 132.359 61.9308 132.476C61.9947 132.589 62.0835 132.669 62.1972 132.716C62.3143 132.762 62.4493 132.785 62.602 132.785C62.7085 132.785 62.815 132.776 62.9216 132.758C63.0281 132.737 63.1098 132.721 63.1666 132.71L63.5235 134.399C63.4099 134.434 63.2501 134.475 63.0441 134.521C62.8381 134.571 62.5878 134.601 62.293 134.612C61.7462 134.633 61.2668 134.56 60.8548 134.393C60.4464 134.227 60.1286 133.967 59.9013 133.616C59.6741 133.264 59.5622 132.82 59.5658 132.284V124.358ZM68.3668 134.5V123.591H72.6708C73.4982 123.591 74.2031 123.749 74.7855 124.065C75.3679 124.377 75.8118 124.812 76.1172 125.37C76.4261 125.924 76.5806 126.563 76.5806 127.288C76.5806 128.012 76.4243 128.651 76.1118 129.205C75.7993 129.759 75.3466 130.191 74.7535 130.5C74.164 130.809 73.4503 130.963 72.6122 130.963H69.8689V129.115H72.2393C72.6832 129.115 73.049 129.038 73.3366 128.886C73.6278 128.729 73.8444 128.515 73.9865 128.241C74.1321 127.964 74.2049 127.646 74.2049 127.288C74.2049 126.925 74.1321 126.609 73.9865 126.339C73.8444 126.066 73.6278 125.855 73.3366 125.706C73.0454 125.553 72.6761 125.477 72.2287 125.477H70.6733V134.5H68.3668ZM80.1495 134.654C79.6275 134.654 79.1623 134.564 78.7539 134.383C78.3455 134.198 78.0223 133.926 77.7844 133.568C77.55 133.206 77.4329 132.755 77.4329 132.215C77.4329 131.76 77.5163 131.379 77.6832 131.07C77.8501 130.761 78.0774 130.512 78.365 130.324C78.6527 130.136 78.9794 129.994 79.3451 129.898C79.7145 129.802 80.1015 129.734 80.5064 129.695C80.9822 129.646 81.3657 129.599 81.6569 129.557C81.9481 129.511 82.1594 129.443 82.2908 129.354C82.4222 129.266 82.4879 129.134 82.4879 128.96V128.928C82.4879 128.591 82.3814 128.33 82.1683 128.145C81.9588 127.961 81.6605 127.868 81.2734 127.868C80.865 127.868 80.5401 127.959 80.2986 128.14C80.0571 128.317 79.8973 128.541 79.8192 128.811L77.7205 128.641C77.827 128.143 78.0365 127.714 78.349 127.352C78.6615 126.986 79.0646 126.705 79.5582 126.51C80.0554 126.311 80.6307 126.212 81.2841 126.212C81.7386 126.212 82.1736 126.265 82.5891 126.371C83.0081 126.478 83.3792 126.643 83.7024 126.867C84.0291 127.091 84.2865 127.378 84.4748 127.73C84.663 128.078 84.7571 128.495 84.7571 128.982V134.5H82.6051V133.365H82.5412C82.4098 133.621 82.234 133.847 82.0138 134.042C81.7937 134.234 81.5291 134.385 81.2201 134.495C80.9112 134.601 80.5543 134.654 80.1495 134.654ZM80.7993 133.088C81.1331 133.088 81.4279 133.023 81.6836 132.891C81.9392 132.756 82.1399 132.575 82.2855 132.348C82.4311 132.121 82.5039 131.863 82.5039 131.576V130.707C82.4329 130.754 82.3352 130.796 82.2109 130.835C82.0902 130.871 81.9535 130.904 81.8008 130.936C81.6481 130.965 81.4954 130.991 81.3427 131.016C81.19 131.038 81.0515 131.057 80.9272 131.075C80.6608 131.114 80.4282 131.176 80.2294 131.261C80.0305 131.347 79.876 131.462 79.766 131.608C79.6559 131.75 79.6008 131.927 79.6008 132.14C79.6008 132.449 79.7127 132.685 79.9364 132.849C80.1637 133.009 80.4513 133.088 80.7993 133.088ZM88.7867 123.591V134.5H86.5176V123.591H88.7867ZM94.3332 134.66C93.4915 134.66 92.7671 134.489 92.1599 134.148C91.5562 133.804 91.091 133.317 90.7643 132.689C90.4376 132.057 90.2742 131.309 90.2742 130.446C90.2742 129.605 90.4376 128.866 90.7643 128.23C91.091 127.595 91.5508 127.099 92.1439 126.744C92.7405 126.389 93.44 126.212 94.2426 126.212C94.7824 126.212 95.2849 126.299 95.7501 126.473C96.2188 126.643 96.6272 126.901 96.9752 127.245C97.3268 127.589 97.6002 128.023 97.7955 128.545C97.9908 129.063 98.0885 129.67 98.0885 130.366V130.99H91.1797V129.583H95.9525C95.9525 129.257 95.8815 128.967 95.7394 128.715C95.5974 128.463 95.4003 128.266 95.1481 128.124C94.8996 127.978 94.6101 127.906 94.2799 127.906C93.9354 127.906 93.63 127.985 93.3637 128.145C93.1009 128.301 92.8949 128.513 92.7458 128.779C92.5967 129.042 92.5203 129.335 92.5168 129.658V130.995C92.5168 131.4 92.5913 131.75 92.7405 132.044C92.8932 132.339 93.108 132.566 93.385 132.726C93.662 132.886 93.9905 132.966 94.3704 132.966C94.6226 132.966 94.8534 132.93 95.0629 132.859C95.2724 132.788 95.4518 132.682 95.6009 132.54C95.7501 132.398 95.8637 132.224 95.9418 132.018L98.0405 132.156C97.934 132.661 97.7156 133.101 97.3854 133.477C97.0587 133.85 96.6361 134.141 96.1176 134.351C95.6027 134.557 95.0079 134.66 94.3332 134.66ZM106.377 128.651L104.299 128.779C104.264 128.602 104.188 128.442 104.07 128.3C103.953 128.154 103.799 128.039 103.607 127.953C103.419 127.865 103.193 127.82 102.93 127.82C102.579 127.82 102.282 127.895 102.041 128.044C101.799 128.19 101.679 128.385 101.679 128.63C101.679 128.825 101.757 128.99 101.913 129.125C102.069 129.26 102.337 129.369 102.717 129.45L104.198 129.749C104.994 129.912 105.587 130.175 105.977 130.537C106.368 130.899 106.563 131.375 106.563 131.964C106.563 132.501 106.405 132.971 106.089 133.376C105.777 133.781 105.347 134.097 104.8 134.324C104.257 134.548 103.63 134.66 102.92 134.66C101.837 134.66 100.974 134.434 100.331 133.983C99.6918 133.529 99.3172 132.911 99.2071 132.13L101.439 132.012C101.506 132.343 101.67 132.595 101.929 132.769C102.188 132.939 102.52 133.025 102.925 133.025C103.323 133.025 103.642 132.948 103.884 132.795C104.129 132.639 104.253 132.439 104.257 132.194C104.253 131.988 104.166 131.819 103.996 131.687C103.825 131.553 103.563 131.45 103.207 131.379L101.791 131.096C100.992 130.936 100.397 130.659 100.006 130.265C99.619 129.871 99.4255 129.369 99.4255 128.758C99.4255 128.232 99.5675 127.779 99.8516 127.4C100.139 127.02 100.542 126.727 101.061 126.521C101.583 126.315 102.194 126.212 102.893 126.212C103.927 126.212 104.74 126.43 105.333 126.867C105.929 127.304 106.277 127.898 106.377 128.651ZM112.344 126.318V128.023H107.417V126.318H112.344ZM108.535 124.358H110.805V131.986C110.805 132.195 110.837 132.359 110.901 132.476C110.964 132.589 111.053 132.669 111.167 132.716C111.284 132.762 111.419 132.785 111.572 132.785C111.678 132.785 111.785 132.776 111.891 132.758C111.998 132.737 112.08 132.721 112.136 132.71L112.493 134.399C112.38 134.434 112.22 134.475 112.014 134.521C111.808 134.571 111.557 134.601 111.263 134.612C110.716 134.633 110.236 134.56 109.825 134.393C109.416 134.227 109.098 133.967 108.871 133.616C108.644 133.264 108.532 132.82 108.535 132.284V124.358ZM113.822 134.5V126.318H116.091V134.5H113.822ZM114.962 125.263C114.625 125.263 114.335 125.152 114.094 124.928C113.856 124.701 113.737 124.429 113.737 124.113C113.737 123.8 113.856 123.532 114.094 123.309C114.335 123.081 114.625 122.968 114.962 122.968C115.3 122.968 115.587 123.081 115.825 123.309C116.067 123.532 116.187 123.8 116.187 124.113C116.187 124.429 116.067 124.701 115.825 124.928C115.587 125.152 115.3 125.263 114.962 125.263ZM120.178 129.77V134.5H117.909V126.318H120.072V127.762H120.168C120.349 127.286 120.652 126.909 121.079 126.632C121.505 126.352 122.021 126.212 122.629 126.212C123.197 126.212 123.692 126.336 124.115 126.585C124.537 126.833 124.866 127.188 125.1 127.65C125.335 128.108 125.452 128.655 125.452 129.29V134.5H123.183V129.695C123.186 129.195 123.058 128.804 122.799 128.523C122.54 128.239 122.183 128.097 121.728 128.097C121.423 128.097 121.153 128.163 120.919 128.294C120.688 128.426 120.507 128.618 120.375 128.87C120.248 129.118 120.182 129.418 120.178 129.77ZM130.969 134.66C130.127 134.66 129.403 134.489 128.796 134.148C128.192 133.804 127.727 133.317 127.4 132.689C127.073 132.057 126.91 131.309 126.91 130.446C126.91 129.605 127.073 128.866 127.4 128.23C127.727 127.595 128.187 127.099 128.78 126.744C129.376 126.389 130.076 126.212 130.878 126.212C131.418 126.212 131.921 126.299 132.386 126.473C132.855 126.643 133.263 126.901 133.611 127.245C133.963 127.589 134.236 128.023 134.431 128.545C134.627 129.063 134.724 129.67 134.724 130.366V130.99H127.815V129.583H132.588C132.588 129.257 132.517 128.967 132.375 128.715C132.233 128.463 132.036 128.266 131.784 128.124C131.535 127.978 131.246 127.906 130.916 127.906C130.571 127.906 130.266 127.985 129.999 128.145C129.737 128.301 129.531 128.513 129.382 128.779C129.232 129.042 129.156 129.335 129.152 129.658V130.995C129.152 131.4 129.227 131.75 129.376 132.044C129.529 132.339 129.744 132.566 130.021 132.726C130.298 132.886 130.626 132.966 131.006 132.966C131.258 132.966 131.489 132.93 131.699 132.859C131.908 132.788 132.088 132.682 132.237 132.54C132.386 132.398 132.499 132.224 132.578 132.018L134.676 132.156C134.57 132.661 134.351 133.101 134.021 133.477C133.694 133.85 133.272 134.141 132.753 134.351C132.238 134.557 131.644 134.66 130.969 134.66Z" fill="white"/>
<path d="M58 209H60.2V211H58V209ZM60.2 209H62.4V211H60.2V209ZM62.4 209H64.6V211H62.4V209ZM64.6 209H66.8V211H64.6V209ZM66.8 209H69V211H66.8V209ZM69 209H71.2V211H69V209ZM71.2 209H73.4V211H71.2V209ZM82.2 209H84.4V211H82.2V209ZM88.8 209H91V211H88.8V209ZM91 209H93.2V211H91V209ZM93.2 209H95.4V211H93.2V209ZM97.6 209H99.8V211H97.6V209ZM99.8 209H102V211H99.8V209ZM102 209H104.2V211H102V209ZM104.2 209H106.4V211H104.2V209ZM106.4 209H108.6V211H106.4V209ZM108.6 209H110.8V211H108.6V209ZM110.8 209H113V211H110.8V209ZM58 211H60.2V213H58V211ZM71.2 211H73.4V213H71.2V211ZM77.8 211H80V213H77.8V211ZM86.6 211H88.8V213H86.6V211ZM88.8 211H91V213H88.8V211ZM93.2 211H95.4V213H93.2V211ZM97.6 211H99.8V213H97.6V211ZM110.8 211H113V213H110.8V211ZM58 213H60.2V215H58V213ZM62.4 213H64.6V215H62.4V213ZM64.6 213H66.8V215H64.6V213ZM66.8 213H69V215H66.8V213ZM71.2 213H73.4V215H71.2V213ZM77.8 213H80V215H77.8V213ZM80 213H82.2V215H80V213ZM84.4 213H86.6V215H84.4V213ZM88.8 213H91V215H88.8V213ZM91 213H93.2V215H91V213ZM97.6 213H99.8V215H97.6V213ZM102 213H104.2V215H102V213ZM104.2 213H106.4V215H104.2V213ZM106.4 213H108.6V215H106.4V213ZM110.8 213H113V215H110.8V213ZM58 215H60.2V217H58V215ZM62.4 215H64.6V217H62.4V215ZM64.6 215H66.8V217H64.6V215ZM66.8 215H69V217H66.8V215ZM71.2 215H73.4V217H71.2V215ZM75.6 215H77.8V217H75.6V215ZM77.8 215H80V217H77.8V215ZM84.4 215H86.6V217H84.4V215ZM88.8 215H91V217H88.8V215ZM91 215H93.2V217H91V215ZM97.6 215H99.8V217H97.6V215ZM102 215H104.2V217H102V215ZM104.2 215H106.4V217H104.2V215ZM106.4 215H108.6V217H106.4V215ZM110.8 215H113V217H110.8V215ZM58 217H60.2V219H58V217ZM62.4 217H64.6V219H62.4V217ZM64.6 217H66.8V219H64.6V217ZM66.8 217H69V219H66.8V217ZM71.2 217H73.4V219H71.2V217ZM80 217H82.2V219H80V217ZM82.2 217H84.4V219H82.2V217ZM84.4 217H86.6V219H84.4V217ZM86.6 217H88.8V219H86.6V217ZM88.8 217H91V219H88.8V217ZM97.6 217H99.8V219H97.6V217ZM102 217H104.2V219H102V217ZM104.2 217H106.4V219H104.2V217ZM106.4 217H108.6V219H106.4V217ZM110.8 217H113V219H110.8V217ZM58 219H60.2V221H58V219ZM71.2 219H73.4V221H71.2V219ZM75.6 219H77.8V221H75.6V219ZM82.2 219H84.4V221H82.2V219ZM93.2 219H95.4V221H93.2V219ZM97.6 219H99.8V221H97.6V219ZM110.8 219H113V221H110.8V219ZM58 221H60.2V223H58V221ZM60.2 221H62.4V223H60.2V221ZM62.4 221H64.6V223H62.4V221ZM64.6 221H66.8V223H64.6V221ZM66.8 221H69V223H66.8V221ZM69 221H71.2V223H69V221ZM71.2 221H73.4V223H71.2V221ZM75.6 221H77.8V223H75.6V221ZM80 221H82.2V223H80V221ZM84.4 221H86.6V223H84.4V221ZM88.8 221H91V223H88.8V221ZM93.2 221H95.4V223H93.2V221ZM97.6 221H99.8V223H97.6V221ZM99.8 221H102V223H99.8V221ZM102 221H104.2V223H102V221ZM104.2 221H106.4V223H104.2V221ZM106.4 221H108.6V223H106.4V221ZM108.6 221H110.8V223H108.6V221ZM110.8 221H113V223H110.8V221ZM75.6 223H77.8V225H75.6V223ZM77.8 223H80V225H77.8V223ZM80 223H82.2V225H80V223ZM88.8 223H91V225H88.8V223ZM91 223H93.2V225H91V223ZM93.2 223H95.4V225H93.2V223ZM60.2 225H62.4V227H60.2V225ZM62.4 225H64.6V227H62.4V225ZM71.2 225H73.4V227H71.2V225ZM86.6 225H88.8V227H86.6V225ZM88.8 225H91V227H88.8V225ZM93.2 225H95.4V227H93.2V225ZM97.6 225H99.8V227H97.6V225ZM99.8 225H102V227H99.8V225ZM104.2 225H106.4V227H104.2V225ZM60.2 227H62.4V229H60.2V227ZM62.4 227H64.6V229H62.4V227ZM66.8 227H69V229H66.8V227ZM73.4 227H75.6V229H73.4V227ZM80 227H82.2V229H80V227ZM82.2 227H84.4V229H82.2V227ZM84.4 227H86.6V229H84.4V227ZM86.6 227H88.8V229H86.6V227ZM88.8 227H91V229H88.8V227ZM91 227H93.2V229H91V227ZM93.2 227H95.4V229H93.2V227ZM97.6 227H99.8V229H97.6V227ZM99.8 227H102V229H99.8V227ZM104.2 227H106.4V229H104.2V227ZM108.6 227H110.8V229H108.6V227ZM110.8 227H113V229H110.8V227ZM71.2 229H73.4V231H71.2V229ZM82.2 229H84.4V231H82.2V229ZM91 229H93.2V231H91V229ZM95.4 229H97.6V231H95.4V229ZM99.8 229H102V231H99.8V229ZM104.2 229H106.4V231H104.2V229ZM106.4 229H108.6V231H106.4V229ZM110.8 229H113V231H110.8V229ZM58 231H60.2V233H58V231ZM60.2 231H62.4V233H60.2V231ZM66.8 231H69V233H66.8V231ZM73.4 231H75.6V233H73.4V231ZM77.8 231H80V233H77.8V231ZM80 231H82.2V233H80V231ZM86.6 231H88.8V233H86.6V231ZM91 231H93.2V233H91V231ZM95.4 231H97.6V233H95.4V231ZM99.8 231H102V233H99.8V231ZM104.2 231H106.4V233H104.2V231ZM58 233H60.2V235H58V233ZM60.2 233H62.4V235H60.2V233ZM64.6 233H66.8V235H64.6V233ZM71.2 233H73.4V235H71.2V233ZM73.4 233H75.6V235H73.4V233ZM75.6 233H77.8V235H75.6V233ZM77.8 233H80V235H77.8V233ZM80 233H82.2V235H80V233ZM86.6 233H88.8V235H86.6V233ZM91 233H93.2V235H91V233ZM93.2 233H95.4V235H93.2V233ZM97.6 233H99.8V235H97.6V233ZM99.8 233H102V235H99.8V233ZM110.8 233H113V235H110.8V233ZM62.4 235H64.6V237H62.4V235ZM64.6 235H66.8V237H64.6V235ZM66.8 235H69V237H66.8V235ZM80 235H82.2V237H80V235ZM82.2 235H84.4V237H82.2V235ZM84.4 235H86.6V237H84.4V235ZM91 235H93.2V237H91V235ZM93.2 235H95.4V237H93.2V235ZM97.6 235H99.8V237H97.6V235ZM99.8 235H102V237H99.8V235ZM108.6 235H110.8V237H108.6V235ZM110.8 235H113V237H110.8V235ZM58 237H60.2V239H58V237ZM60.2 237H62.4V239H60.2V237ZM64.6 237H66.8V239H64.6V237ZM69 237H71.2V239H69V237ZM71.2 237H73.4V239H71.2V237ZM75.6 237H77.8V239H75.6V237ZM77.8 237H80V239H77.8V237ZM80 237H82.2V239H80V237ZM84.4 237H86.6V239H84.4V237ZM91 237H93.2V239H91V237ZM93.2 237H95.4V239H93.2V237ZM97.6 237H99.8V239H97.6V237ZM104.2 237H106.4V239H104.2V237ZM106.4 237H108.6V239H106.4V237ZM110.8 237H113V239H110.8V237ZM62.4 239H64.6V241H62.4V239ZM64.6 239H66.8V241H64.6V239ZM66.8 239H69V241H66.8V239ZM73.4 239H75.6V241H73.4V239ZM80 239H82.2V241H80V239ZM88.8 239H91V241H88.8V239ZM91 239H93.2V241H91V239ZM93.2 239H95.4V241H93.2V239ZM95.4 239H97.6V241H95.4V239ZM97.6 239H99.8V241H97.6V239ZM99.8 239H102V241H99.8V239ZM102 239H104.2V241H102V239ZM104.2 239H106.4V241H104.2V239ZM58 241H60.2V243H58V241ZM60.2 241H62.4V243H60.2V241ZM62.4 241H64.6V243H62.4V241ZM66.8 241H69V243H66.8V241ZM71.2 241H73.4V243H71.2V241ZM75.6 241H77.8V243H75.6V241ZM82.2 241H84.4V243H82.2V241ZM93.2 241H95.4V243H93.2V241ZM95.4 241H97.6V243H95.4V241ZM97.6 241H99.8V243H97.6V241ZM99.8 241H102V243H99.8V241ZM102 241H104.2V243H102V241ZM108.6 241H110.8V243H108.6V241ZM75.6 243H77.8V245H75.6V243ZM77.8 243H80V245H77.8V243ZM80 243H82.2V245H80V243ZM82.2 243H84.4V245H82.2V243ZM86.6 243H88.8V245H86.6V243ZM88.8 243H91V245H88.8V243ZM93.2 243H95.4V245H93.2V243ZM102 243H104.2V245H102V243ZM110.8 243H113V245H110.8V243ZM58 245H60.2V247H58V245ZM60.2 245H62.4V247H60.2V245ZM62.4 245H64.6V247H62.4V245ZM64.6 245H66.8V247H64.6V245ZM66.8 245H69V247H66.8V245ZM69 245H71.2V247H69V245ZM71.2 245H73.4V247H71.2V245ZM80 245H82.2V247H80V245ZM82.2 245H84.4V247H82.2V245ZM88.8 245H91V247H88.8V245ZM93.2 245H95.4V247H93.2V245ZM97.6 245H99.8V247H97.6V245ZM102 245H104.2V247H102V245ZM110.8 245H113V247H110.8V245ZM58 247H60.2V249H58V247ZM71.2 247H73.4V249H71.2V247ZM77.8 247H80V249H77.8V247ZM80 247H82.2V249H80V247ZM84.4 247H86.6V249H84.4V247ZM86.6 247H88.8V249H86.6V247ZM93.2 247H95.4V249H93.2V247ZM102 247H104.2V249H102V247ZM108.6 247H110.8V249H108.6V247ZM58 249H60.2V251H58V249ZM62.4 249H64.6V251H62.4V249ZM64.6 249H66.8V251H64.6V249ZM66.8 249H69V251H66.8V249ZM71.2 249H73.4V251H71.2V249ZM77.8 249H80V251H77.8V249ZM80 249H82.2V251H80V249ZM88.8 249H91V251H88.8V249ZM91 249H93.2V251H91V249ZM93.2 249H95.4V251H93.2V249ZM95.4 249H97.6V251H95.4V249ZM97.6 249H99.8V251H97.6V249ZM99.8 249H102V251H99.8V249ZM102 249H104.2V251H102V249ZM108.6 249H110.8V251H108.6V249ZM110.8 249H113V251H110.8V249ZM58 251H60.2V253H58V251ZM62.4 251H64.6V253H62.4V251ZM64.6 251H66.8V253H64.6V251ZM66.8 251H69V253H66.8V251ZM71.2 251H73.4V253H71.2V251ZM77.8 251H80V253H77.8V251ZM80 251H82.2V253H80V251ZM82.2 251H84.4V253H82.2V251ZM84.4 251H86.6V253H84.4V251ZM91 251H93.2V253H91V251ZM95.4 251H97.6V253H95.4V251ZM102 251H104.2V253H102V251ZM106.4 251H108.6V253H106.4V251ZM108.6 251H110.8V253H108.6V251ZM58 253H60.2V255H58V253ZM62.4 253H64.6V255H62.4V253ZM64.6 253H66.8V255H64.6V253ZM66.8 253H69V255H66.8V253ZM71.2 253H73.4V255H71.2V253ZM75.6 253H77.8V255H75.6V253ZM86.6 253H88.8V255H86.6V253ZM88.8 253H91V255H88.8V253ZM91 253H93.2V255H91V253ZM93.2 253H95.4V255H93.2V253ZM95.4 253H97.6V255H95.4V253ZM99.8 253H102V255H99.8V253ZM102 253H104.2V255H102V253ZM104.2 253H106.4V255H104.2V253ZM108.6 253H110.8V255H108.6V253ZM110.8 253H113V255H110.8V253ZM58 255H60.2V257H58V255ZM71.2 255H73.4V257H71.2V255ZM75.6 255H77.8V257H75.6V255ZM77.8 255H80V257H77.8V255ZM80 255H82.2V257H80V255ZM86.6 255H88.8V257H86.6V255ZM93.2 255H95.4V257H93.2V255ZM95.4 255H97.6V257H95.4V255ZM97.6 255H99.8V257H97.6V255ZM99.8 255H102V257H99.8V255ZM102 255H104.2V257H102V255ZM58 257H60.2V259H58V257ZM60.2 257H62.4V259H60.2V257ZM62.4 257H64.6V259H62.4V257ZM64.6 257H66.8V259H64.6V257ZM66.8 257H69V259H66.8V257ZM69 257H71.2V259H69V257ZM71.2 257H73.4V259H71.2V257ZM80 257H82.2V259H80V257ZM84.4 257H86.6V259H84.4V257ZM93.2 257H95.4V259H93.2V257ZM97.6 257H99.8V259H97.6V257ZM104.2 257H106.4V259H104.2V257ZM110.8 257H113V259H110.8V257Z" fill="black"/>
<path d="M10 163C10 161.895 10.8954 161 12 161H158.65C159.755 161 160.65 161.895 160.65 163V173.665C160.65 174.703 159.856 175.569 158.822 175.658L12.1719 188.313C11.0039 188.413 10 187.492 10 186.32V163Z" fill="#FFDBDB"/>
<path d="M11.838 164.727H13.1697L15.485 170.381H15.5702L17.8856 164.727H19.2172V172H18.1732V166.737H18.1057L15.9608 171.989H15.0944L12.9495 166.734H12.882V172H11.838V164.727ZM22.3147 172.121C21.9691 172.121 21.6566 172.057 21.3772 171.929C21.0979 171.799 20.8765 171.611 20.7132 171.364C20.5522 171.118 20.4717 170.816 20.4717 170.459C20.4717 170.151 20.5309 169.898 20.6492 169.699C20.7676 169.5 20.9274 169.343 21.1286 169.227C21.3299 169.111 21.5548 169.023 21.8034 168.964C22.0519 168.905 22.3052 168.86 22.5633 168.829C22.89 168.791 23.1552 168.76 23.3588 168.737C23.5623 168.71 23.7103 168.669 23.8026 168.612C23.895 168.555 23.9411 168.463 23.9411 168.335V168.31C23.9411 168 23.8535 167.76 23.6784 167.589C23.5055 167.419 23.2475 167.334 22.9042 167.334C22.5467 167.334 22.265 167.413 22.059 167.572C21.8554 167.728 21.7146 167.902 21.6364 168.094L20.6386 167.866C20.757 167.535 20.9298 167.268 21.157 167.064C21.3867 166.858 21.6507 166.709 21.9489 166.616C22.2472 166.522 22.5609 166.474 22.89 166.474C23.1078 166.474 23.3386 166.5 23.5825 166.553C23.8287 166.602 24.0583 166.695 24.2714 166.83C24.4868 166.964 24.6632 167.157 24.8005 167.408C24.9378 167.657 25.0065 167.98 25.0065 168.378V172H23.9695V171.254H23.9269C23.8583 171.392 23.7553 171.527 23.618 171.659C23.4807 171.792 23.3043 171.902 23.0889 171.989C22.8734 172.077 22.6154 172.121 22.3147 172.121ZM22.5455 171.268C22.8391 171.268 23.09 171.21 23.2984 171.094C23.5091 170.978 23.6689 170.827 23.7778 170.64C23.8891 170.451 23.9447 170.248 23.9447 170.033V169.33C23.9068 169.367 23.8334 169.403 23.7245 169.436C23.618 169.467 23.4961 169.494 23.3588 169.518C23.2214 169.539 23.0877 169.559 22.9575 169.578C22.8273 169.595 22.7184 169.609 22.6308 169.621C22.4248 169.647 22.2366 169.691 22.0661 169.752C21.8981 169.814 21.7631 169.902 21.6613 170.018C21.5619 170.132 21.5122 170.284 21.5122 170.473C21.5122 170.736 21.6092 170.935 21.8034 171.07C21.9975 171.202 22.2449 171.268 22.5455 171.268ZM27.3973 170.15L27.3902 168.854H27.5748L29.7481 166.545H31.0194L28.5407 169.173H28.3738L27.3973 170.15ZM26.4207 172V164.727H27.4825V172H26.4207ZM29.8653 172L27.9122 169.408L28.6437 168.665L31.1686 172H29.8653ZM34.1134 172.11C33.576 172.11 33.1131 171.995 32.7249 171.766C32.339 171.534 32.0407 171.208 31.83 170.789C31.6217 170.368 31.5175 169.874 31.5175 169.308C31.5175 168.75 31.6217 168.257 31.83 167.831C32.0407 167.405 32.3342 167.072 32.7107 166.833C33.0895 166.594 33.5322 166.474 34.0388 166.474C34.3466 166.474 34.6449 166.525 34.9337 166.627C35.2225 166.729 35.4817 166.889 35.7114 167.107C35.941 167.324 36.1221 167.607 36.2547 167.955C36.3873 168.301 36.4536 168.721 36.4536 169.216V169.592H32.1176V168.797H35.4131C35.4131 168.518 35.3563 168.27 35.2426 168.055C35.129 167.837 34.9692 167.665 34.7632 167.54C34.5596 167.414 34.3205 167.352 34.0459 167.352C33.7476 167.352 33.4872 167.425 33.2646 167.572C33.0445 167.716 32.874 167.906 32.7533 168.14C32.6349 168.372 32.5757 168.624 32.5757 168.896V169.518C32.5757 169.882 32.6396 170.192 32.7675 170.448C32.8977 170.704 33.0788 170.899 33.3108 171.034C33.5428 171.167 33.8139 171.233 34.124 171.233C34.3253 171.233 34.5087 171.205 34.6744 171.148C34.8402 171.089 34.9834 171.001 35.1041 170.885C35.2249 170.769 35.3172 170.626 35.3811 170.455L36.3861 170.636C36.3056 170.932 36.1612 171.192 35.9529 171.414C35.7469 171.634 35.4877 171.806 35.1752 171.929C34.865 172.05 34.5111 172.11 34.1134 172.11ZM40.3634 172V164.727H41.4252V167.43H41.4891C41.5506 167.316 41.6394 167.185 41.7554 167.036C41.8714 166.886 42.0324 166.756 42.2384 166.645C42.4443 166.531 42.7166 166.474 43.0551 166.474C43.4955 166.474 43.8885 166.586 44.2341 166.808C44.5798 167.031 44.8508 167.352 45.0473 167.771C45.2462 168.19 45.3456 168.694 45.3456 169.283C45.3456 169.873 45.2474 170.378 45.0509 170.8C44.8544 171.219 44.5845 171.542 44.2412 171.769C43.8979 171.994 43.5061 172.107 43.0658 172.107C42.7343 172.107 42.4633 172.051 42.2526 171.94C42.0442 171.828 41.8809 171.698 41.7625 171.549C41.6441 171.4 41.553 171.267 41.4891 171.151H41.4003V172H40.3634ZM41.4039 169.273C41.4039 169.656 41.4595 169.992 41.5708 170.281C41.682 170.57 41.843 170.796 42.0537 170.96C42.2644 171.121 42.5225 171.201 42.8279 171.201C43.1451 171.201 43.4102 171.117 43.6233 170.949C43.8364 170.778 43.9974 170.548 44.1063 170.256C44.2175 169.965 44.2732 169.637 44.2732 169.273C44.2732 168.913 44.2187 168.59 44.1098 168.303C44.0033 168.017 43.8423 167.791 43.6269 167.625C43.4138 167.459 43.1475 167.376 42.8279 167.376C42.5201 167.376 42.2597 167.456 42.0466 167.614C41.8359 167.773 41.6761 167.994 41.5672 168.278C41.4583 168.562 41.4039 168.894 41.4039 169.273ZM48.8355 172.11C48.3241 172.11 47.8779 171.993 47.4967 171.759C47.1156 171.524 46.8196 171.196 46.6089 170.775C46.3982 170.353 46.2929 169.861 46.2929 169.298C46.2929 168.732 46.3982 168.237 46.6089 167.813C46.8196 167.389 47.1156 167.06 47.4967 166.826C47.8779 166.592 48.3241 166.474 48.8355 166.474C49.3469 166.474 49.7931 166.592 50.1743 166.826C50.5554 167.06 50.8514 167.389 51.0621 167.813C51.2728 168.237 51.3781 168.732 51.3781 169.298C51.3781 169.861 51.2728 170.353 51.0621 170.775C50.8514 171.196 50.5554 171.524 50.1743 171.759C49.7931 171.993 49.3469 172.11 48.8355 172.11ZM48.839 171.219C49.1705 171.219 49.4451 171.131 49.6629 170.956C49.8807 170.781 50.0417 170.548 50.1459 170.256C50.2524 169.965 50.3057 169.644 50.3057 169.294C50.3057 168.946 50.2524 168.626 50.1459 168.335C50.0417 168.042 49.8807 167.806 49.6629 167.629C49.4451 167.451 49.1705 167.362 48.839 167.362C48.5052 167.362 48.2282 167.451 48.0081 167.629C47.7903 167.806 47.6281 168.042 47.5216 168.335C47.4174 168.626 47.3653 168.946 47.3653 169.294C47.3653 169.644 47.4174 169.965 47.5216 170.256C47.6281 170.548 47.7903 170.781 48.0081 170.956C48.2282 171.131 48.5052 171.219 48.839 171.219ZM52.5633 172V166.545H53.5825V167.433H53.6499C53.7636 167.133 53.9494 166.898 54.2075 166.73C54.4655 166.56 54.7745 166.474 55.1343 166.474C55.4989 166.474 55.8043 166.56 56.0505 166.73C56.2991 166.901 56.4826 167.135 56.6009 167.433H56.6578C56.788 167.142 56.9951 166.91 57.2792 166.737C57.5633 166.562 57.9018 166.474 58.2948 166.474C58.7896 166.474 59.1933 166.629 59.5058 166.94C59.8206 167.25 59.9781 167.717 59.9781 168.342V172H58.9163V168.442C58.9163 168.072 58.8157 167.805 58.6144 167.639C58.4132 167.473 58.1729 167.391 57.8936 167.391C57.5479 167.391 57.2792 167.497 57.0874 167.71C56.8957 167.921 56.7998 168.192 56.7998 168.523V172H55.7416V168.374C55.7416 168.078 55.6492 167.84 55.4646 167.661C55.2799 167.481 55.0396 167.391 54.7437 167.391C54.5425 167.391 54.3566 167.444 54.1862 167.55C54.0181 167.655 53.882 167.8 53.7778 167.987C53.676 168.174 53.6251 168.391 53.6251 168.637V172H52.5633ZM61.4864 172V164.727H62.5482V167.43H62.6121C62.6737 167.316 62.7625 167.185 62.8785 167.036C62.9945 166.886 63.1554 166.756 63.3614 166.645C63.5674 166.531 63.8396 166.474 64.1782 166.474C64.6185 166.474 65.0115 166.586 65.3572 166.808C65.7028 167.031 65.9739 167.352 66.1704 167.771C66.3692 168.19 66.4687 168.694 66.4687 169.283C66.4687 169.873 66.3704 170.378 66.1739 170.8C65.9774 171.219 65.7075 171.542 65.3643 171.769C65.021 171.994 64.6292 172.107 64.1888 172.107C63.8574 172.107 63.5863 172.051 63.3756 171.94C63.1673 171.828 63.0039 171.698 62.8856 171.549C62.7672 171.4 62.676 171.267 62.6121 171.151H62.5233V172H61.4864ZM62.5269 169.273C62.5269 169.656 62.5825 169.992 62.6938 170.281C62.8051 170.57 62.9661 170.796 63.1768 170.96C63.3875 171.121 63.6455 171.201 63.9509 171.201C64.2681 171.201 64.5333 171.117 64.7464 170.949C64.9594 170.778 65.1204 170.548 65.2293 170.256C65.3406 169.965 65.3962 169.637 65.3962 169.273C65.3962 168.913 65.3418 168.59 65.2329 168.303C65.1263 168.017 64.9653 167.791 64.7499 167.625C64.5368 167.459 64.2705 167.376 63.9509 167.376C63.6431 167.376 63.3827 167.456 63.1697 167.614C62.959 167.773 62.7992 167.994 62.6902 168.278C62.5813 168.562 62.5269 168.894 62.5269 169.273ZM71.7483 167.877L70.786 168.048C70.7457 167.924 70.6818 167.807 70.5942 167.696C70.509 167.585 70.393 167.494 70.2462 167.423C70.0994 167.352 69.9159 167.316 69.6958 167.316C69.3951 167.316 69.1441 167.384 68.9429 167.518C68.7417 167.651 68.6411 167.823 68.6411 168.033C68.6411 168.216 68.7085 168.362 68.8435 168.474C68.9784 168.585 69.1962 168.676 69.4969 168.747L70.3634 168.946C70.8653 169.062 71.2393 169.241 71.4855 169.482C71.7317 169.724 71.8548 170.037 71.8548 170.423C71.8548 170.75 71.7601 171.041 71.5708 171.297C71.3837 171.55 71.1221 171.749 70.786 171.893C70.4521 172.038 70.0651 172.11 69.6247 172.11C69.0139 172.11 68.5156 171.98 68.1297 171.719C67.7438 171.457 67.5071 171.084 67.4195 170.601L68.4458 170.445C68.5097 170.712 68.6411 170.915 68.8399 171.052C69.0388 171.187 69.298 171.254 69.6176 171.254C69.9656 171.254 70.2438 171.182 70.4521 171.038C70.6605 170.891 70.7646 170.712 70.7646 170.501C70.7646 170.331 70.7007 170.188 70.5729 170.072C70.4474 169.956 70.2545 169.868 69.994 169.809L69.0708 169.607C68.5618 169.491 68.1853 169.306 67.9415 169.053C67.7 168.799 67.5793 168.478 67.5793 168.09C67.5793 167.768 67.6692 167.487 67.8492 167.245C68.0291 167.004 68.2777 166.815 68.5949 166.68C68.9121 166.543 69.2755 166.474 69.6851 166.474C70.2746 166.474 70.7386 166.602 71.0771 166.858C71.4157 167.111 71.6394 167.451 71.7483 167.877ZM76.2361 168.467V169.386H73.0116V168.467H76.2361ZM80.2471 166.545V167.398H77.1647V166.545H80.2471ZM78.0099 172V165.913C78.0099 165.572 78.0844 165.29 78.2336 165.065C78.3827 164.837 78.5804 164.668 78.8266 164.557C79.0728 164.443 79.3403 164.386 79.6292 164.386C79.8422 164.386 80.0245 164.404 80.176 164.44C80.3276 164.473 80.44 164.504 80.5134 164.532L80.2648 165.391C80.2151 165.377 80.1512 165.361 80.0731 165.342C79.9949 165.32 79.9002 165.31 79.789 165.31C79.5309 165.31 79.3463 165.374 79.235 165.501C79.1261 165.629 79.0716 165.814 79.0716 166.055V172H78.0099ZM81.3426 172V166.545H82.3689V167.412H82.4257C82.5251 167.118 82.7003 166.888 82.9513 166.719C83.2046 166.549 83.491 166.464 83.8106 166.464C83.8769 166.464 83.955 166.466 84.045 166.471C84.1373 166.476 84.2095 166.482 84.2616 166.489V167.504C84.219 167.492 84.1433 167.479 84.0344 167.465C83.9255 167.449 83.8166 167.44 83.7077 167.44C83.4567 167.44 83.233 167.494 83.0365 167.6C82.8424 167.704 82.6885 167.85 82.5748 168.037C82.4612 168.222 82.4044 168.432 82.4044 168.669V172H81.3426ZM87.336 172.11C86.7986 172.11 86.3358 171.995 85.9475 171.766C85.5616 171.534 85.2633 171.208 85.0526 170.789C84.8443 170.368 84.7401 169.874 84.7401 169.308C84.7401 168.75 84.8443 168.257 85.0526 167.831C85.2633 167.405 85.5569 167.072 85.9333 166.833C86.3121 166.594 86.7548 166.474 87.2614 166.474C87.5692 166.474 87.8675 166.525 88.1563 166.627C88.4452 166.729 88.7044 166.889 88.934 167.107C89.1637 167.324 89.3448 167.607 89.4774 167.955C89.6099 168.301 89.6762 168.721 89.6762 169.216V169.592H85.3403V168.797H88.6357C88.6357 168.518 88.5789 168.27 88.4653 168.055C88.3516 167.837 88.1918 167.665 87.9859 167.54C87.7823 167.414 87.5432 167.352 87.2686 167.352C86.9703 167.352 86.7098 167.425 86.4873 167.572C86.2671 167.716 86.0967 167.906 85.9759 168.14C85.8576 168.372 85.7984 168.624 85.7984 168.896V169.518C85.7984 169.882 85.8623 170.192 85.9901 170.448C86.1204 170.704 86.3015 170.899 86.5335 171.034C86.7655 171.167 87.0365 171.233 87.3467 171.233C87.5479 171.233 87.7314 171.205 87.8971 171.148C88.0628 171.089 88.2061 171.001 88.3268 170.885C88.4475 170.769 88.5399 170.626 88.6038 170.455L89.6088 170.636C89.5283 170.932 89.3838 171.192 89.1755 171.414C88.9695 171.634 88.7103 171.806 88.3978 171.929C88.0877 172.05 87.7338 172.11 87.336 172.11ZM93.2052 172.11C92.6678 172.11 92.2049 171.995 91.8167 171.766C91.4308 171.534 91.1325 171.208 90.9218 170.789C90.7135 170.368 90.6093 169.874 90.6093 169.308C90.6093 168.75 90.7135 168.257 90.9218 167.831C91.1325 167.405 91.426 167.072 91.8025 166.833C92.1813 166.594 92.624 166.474 93.1306 166.474C93.4384 166.474 93.7367 166.525 94.0255 166.627C94.3143 166.729 94.5735 166.889 94.8032 167.107C95.0328 167.324 95.2139 167.607 95.3465 167.955C95.4791 168.301 95.5454 168.721 95.5454 169.216V169.592H91.2094V168.797H94.5049C94.5049 168.518 94.4481 168.27 94.3344 168.055C94.2208 167.837 94.061 167.665 93.855 167.54C93.6514 167.414 93.4123 167.352 93.1377 167.352C92.8394 167.352 92.579 167.425 92.3564 167.572C92.1363 167.716 91.9658 167.906 91.8451 168.14C91.7267 168.372 91.6675 168.624 91.6675 168.896V169.518C91.6675 169.882 91.7314 170.192 91.8593 170.448C91.9895 170.704 92.1706 170.899 92.4026 171.034C92.6346 171.167 92.9057 171.233 93.2158 171.233C93.417 171.233 93.6005 171.205 93.7662 171.148C93.932 171.089 94.0752 171.001 94.1959 170.885C94.3167 170.769 94.409 170.626 94.4729 170.455L95.4779 170.636C95.3974 170.932 95.253 171.192 95.0447 171.414C94.8387 171.634 94.5795 171.806 94.267 171.929C93.9568 172.05 93.6029 172.11 93.2052 172.11ZM99.3699 174.045V166.545H100.407V167.43H100.496C100.557 167.316 100.646 167.185 100.762 167.036C100.878 166.886 101.039 166.756 101.245 166.645C101.451 166.531 101.723 166.474 102.062 166.474C102.502 166.474 102.895 166.586 103.241 166.808C103.586 167.031 103.857 167.352 104.054 167.771C104.253 168.19 104.352 168.694 104.352 169.283C104.352 169.873 104.254 170.378 104.057 170.8C103.861 171.219 103.591 171.542 103.248 171.769C102.905 171.994 102.513 172.107 102.072 172.107C101.741 172.107 101.47 172.051 101.259 171.94C101.051 171.828 100.887 171.698 100.769 171.549C100.651 171.4 100.56 171.267 100.496 171.151H100.432V174.045H99.3699ZM100.41 169.273C100.41 169.656 100.466 169.992 100.577 170.281C100.689 170.57 100.85 170.796 101.06 170.96C101.271 171.121 101.529 171.201 101.834 171.201C102.152 171.201 102.417 171.117 102.63 170.949C102.843 170.778 103.004 170.548 103.113 170.256C103.224 169.965 103.28 169.637 103.28 169.273C103.28 168.913 103.225 168.59 103.116 168.303C103.01 168.017 102.849 167.791 102.633 167.625C102.42 167.459 102.154 167.376 101.834 167.376C101.527 167.376 101.266 167.456 101.053 167.614C100.842 167.773 100.683 167.994 100.574 168.278C100.465 168.562 100.41 168.894 100.41 169.273ZM108.997 169.738V166.545H110.062V172H109.018V171.055H108.962C108.836 171.347 108.635 171.589 108.358 171.783C108.083 171.975 107.741 172.071 107.332 172.071C106.981 172.071 106.671 171.994 106.401 171.84C106.134 171.684 105.923 171.453 105.769 171.148C105.618 170.842 105.542 170.465 105.542 170.015V166.545H106.604V169.887C106.604 170.259 106.707 170.555 106.913 170.775C107.119 170.995 107.386 171.105 107.715 171.105C107.914 171.105 108.112 171.055 108.308 170.956C108.507 170.857 108.672 170.706 108.802 170.505C108.934 170.304 108.999 170.048 108.997 169.738ZM111.489 172V166.545H112.515V167.412H112.572C112.672 167.118 112.847 166.888 113.098 166.719C113.351 166.549 113.638 166.464 113.957 166.464C114.023 166.464 114.102 166.466 114.191 166.471C114.284 166.476 114.356 166.482 114.408 166.489V167.504C114.365 167.492 114.29 167.479 114.181 167.465C114.072 167.449 113.963 167.44 113.854 167.44C113.603 167.44 113.379 167.494 113.183 167.6C112.989 167.704 112.835 167.85 112.721 168.037C112.608 168.222 112.551 168.432 112.551 168.669V172H111.489ZM117.429 172.11C116.901 172.11 116.447 171.991 116.066 171.751C115.687 171.51 115.396 171.177 115.192 170.754C114.988 170.33 114.887 169.844 114.887 169.298C114.887 168.744 114.991 168.255 115.199 167.831C115.407 167.405 115.701 167.072 116.08 166.833C116.459 166.594 116.905 166.474 117.419 166.474C117.833 166.474 118.202 166.551 118.527 166.705C118.851 166.857 119.112 167.07 119.311 167.344C119.513 167.619 119.632 167.94 119.67 168.307H118.637C118.58 168.051 118.45 167.831 118.246 167.646C118.045 167.462 117.775 167.369 117.436 167.369C117.14 167.369 116.881 167.447 116.659 167.604C116.438 167.758 116.267 167.978 116.144 168.264C116.021 168.548 115.959 168.884 115.959 169.273C115.959 169.67 116.019 170.014 116.14 170.303C116.261 170.591 116.431 170.815 116.652 170.974C116.874 171.132 117.136 171.212 117.436 171.212C117.638 171.212 117.82 171.175 117.983 171.102C118.149 171.026 118.287 170.918 118.399 170.778C118.512 170.639 118.592 170.471 118.637 170.274H119.67C119.632 170.627 119.517 170.942 119.326 171.219C119.134 171.496 118.877 171.714 118.555 171.872C118.235 172.031 117.86 172.11 117.429 172.11ZM121.867 168.761V172H120.805V164.727H121.853V167.433H121.921C122.048 167.14 122.244 166.906 122.506 166.734C122.769 166.561 123.113 166.474 123.536 166.474C123.91 166.474 124.237 166.551 124.516 166.705C124.798 166.859 125.016 167.089 125.17 167.394C125.326 167.697 125.404 168.076 125.404 168.531V172H124.342V168.658C124.342 168.258 124.239 167.948 124.033 167.728C123.828 167.505 123.541 167.394 123.174 167.394C122.923 167.394 122.698 167.447 122.499 167.554C122.303 167.661 122.148 167.817 122.034 168.023C121.923 168.226 121.867 168.473 121.867 168.761ZM128.408 172.121C128.063 172.121 127.75 172.057 127.471 171.929C127.192 171.799 126.97 171.611 126.807 171.364C126.646 171.118 126.565 170.816 126.565 170.459C126.565 170.151 126.625 169.898 126.743 169.699C126.861 169.5 127.021 169.343 127.222 169.227C127.424 169.111 127.649 169.023 127.897 168.964C128.146 168.905 128.399 168.86 128.657 168.829C128.984 168.791 129.249 168.76 129.453 168.737C129.656 168.71 129.804 168.669 129.896 168.612C129.989 168.555 130.035 168.463 130.035 168.335V168.31C130.035 168 129.947 167.76 129.772 167.589C129.599 167.419 129.341 167.334 128.998 167.334C128.64 167.334 128.359 167.413 128.153 167.572C127.949 167.728 127.808 167.902 127.73 168.094L126.732 167.866C126.851 167.535 127.024 167.268 127.251 167.064C127.48 166.858 127.744 166.709 128.043 166.616C128.341 166.522 128.655 166.474 128.984 166.474C129.202 166.474 129.432 166.5 129.676 166.553C129.922 166.602 130.152 166.695 130.365 166.83C130.581 166.964 130.757 167.157 130.894 167.408C131.032 167.657 131.1 167.98 131.1 168.378V172H130.063V171.254H130.021C129.952 171.392 129.849 171.527 129.712 171.659C129.574 171.792 129.398 171.902 129.183 171.989C128.967 172.077 128.709 172.121 128.408 172.121ZM128.639 171.268C128.933 171.268 129.184 171.21 129.392 171.094C129.603 170.978 129.763 170.827 129.872 170.64C129.983 170.451 130.038 170.248 130.038 170.033V169.33C130.001 169.367 129.927 169.403 129.818 169.436C129.712 169.467 129.59 169.494 129.453 169.518C129.315 169.539 129.181 169.559 129.051 169.578C128.921 169.595 128.812 169.609 128.725 169.621C128.519 169.647 128.33 169.691 128.16 169.752C127.992 169.814 127.857 169.902 127.755 170.018C127.656 170.132 127.606 170.284 127.606 170.473C127.606 170.736 127.703 170.935 127.897 171.07C128.091 171.202 128.339 171.268 128.639 171.268ZM136.602 167.877L135.639 168.048C135.599 167.924 135.535 167.807 135.448 167.696C135.362 167.585 135.246 167.494 135.1 167.423C134.953 167.352 134.769 167.316 134.549 167.316C134.249 167.316 133.998 167.384 133.796 167.518C133.595 167.651 133.495 167.823 133.495 168.033C133.495 168.216 133.562 168.362 133.697 168.474C133.832 168.585 134.05 168.676 134.35 168.747L135.217 168.946C135.719 169.062 136.093 169.241 136.339 169.482C136.585 169.724 136.708 170.037 136.708 170.423C136.708 170.75 136.614 171.041 136.424 171.297C136.237 171.55 135.976 171.749 135.639 171.893C135.306 172.038 134.919 172.11 134.478 172.11C133.867 172.11 133.369 171.98 132.983 171.719C132.597 171.457 132.361 171.084 132.273 170.601L133.299 170.445C133.363 170.712 133.495 170.915 133.693 171.052C133.892 171.187 134.152 171.254 134.471 171.254C134.819 171.254 135.097 171.182 135.306 171.038C135.514 170.891 135.618 170.712 135.618 170.501C135.618 170.331 135.554 170.188 135.426 170.072C135.301 169.956 135.108 169.868 134.848 169.809L133.924 169.607C133.415 169.491 133.039 169.306 132.795 169.053C132.554 168.799 132.433 168.478 132.433 168.09C132.433 167.768 132.523 167.487 132.703 167.245C132.883 167.004 133.131 166.815 133.448 166.68C133.766 166.543 134.129 166.474 134.539 166.474C135.128 166.474 135.592 166.602 135.931 166.858C136.269 167.111 136.493 167.451 136.602 167.877ZM140.227 172.11C139.689 172.11 139.226 171.995 138.838 171.766C138.452 171.534 138.154 171.208 137.943 170.789C137.735 170.368 137.631 169.874 137.631 169.308C137.631 168.75 137.735 168.257 137.943 167.831C138.154 167.405 138.448 167.072 138.824 166.833C139.203 166.594 139.645 166.474 140.152 166.474C140.46 166.474 140.758 166.525 141.047 166.627C141.336 166.729 141.595 166.889 141.825 167.107C142.054 167.324 142.235 167.607 142.368 167.955C142.501 168.301 142.567 168.721 142.567 169.216V169.592H138.231V168.797H141.526C141.526 168.518 141.47 168.27 141.356 168.055C141.242 167.837 141.082 167.665 140.877 167.54C140.673 167.414 140.434 167.352 140.159 167.352C139.861 167.352 139.6 167.425 139.378 167.572C139.158 167.716 138.987 167.906 138.867 168.14C138.748 168.372 138.689 168.624 138.689 168.896V169.518C138.689 169.882 138.753 170.192 138.881 170.448C139.011 170.704 139.192 170.899 139.424 171.034C139.656 171.167 139.927 171.233 140.237 171.233C140.439 171.233 140.622 171.205 140.788 171.148C140.953 171.089 141.097 171.001 141.217 170.885C141.338 170.769 141.43 170.626 141.494 170.455L142.499 170.636C142.419 170.932 142.274 171.192 142.066 171.414C141.86 171.634 141.601 171.806 141.288 171.929C140.978 172.05 140.624 172.11 140.227 172.11ZM147.832 167.877L146.87 168.048C146.83 167.924 146.766 167.807 146.678 167.696C146.593 167.585 146.477 167.494 146.33 167.423C146.183 167.352 146 167.316 145.78 167.316C145.479 167.316 145.228 167.384 145.027 167.518C144.826 167.651 144.725 167.823 144.725 168.033C144.725 168.216 144.793 168.362 144.927 168.474C145.062 168.585 145.28 168.676 145.581 168.747L146.447 168.946C146.949 169.062 147.323 169.241 147.57 169.482C147.816 169.724 147.939 170.037 147.939 170.423C147.939 170.75 147.844 171.041 147.655 171.297C147.468 171.55 147.206 171.749 146.87 171.893C146.536 172.038 146.149 172.11 145.709 172.11C145.098 172.11 144.6 171.98 144.214 171.719C143.828 171.457 143.591 171.084 143.503 170.601L144.53 170.445C144.594 170.712 144.725 170.915 144.924 171.052C145.123 171.187 145.382 171.254 145.702 171.254C146.05 171.254 146.328 171.182 146.536 171.038C146.744 170.891 146.849 170.712 146.849 170.501C146.849 170.331 146.785 170.188 146.657 170.072C146.531 169.956 146.338 169.868 146.078 169.809L145.155 169.607C144.646 169.491 144.269 169.306 144.025 169.053C143.784 168.799 143.663 168.478 143.663 168.09C143.663 167.768 143.753 167.487 143.933 167.245C144.113 167.004 144.362 166.815 144.679 166.68C144.996 166.543 145.36 166.474 145.769 166.474C146.359 166.474 146.823 166.602 147.161 166.858C147.5 167.111 147.723 167.451 147.832 167.877Z" fill="#FF3737"/>
<path d="M58.9148 272.545C58.8745 272.141 58.6958 271.819 58.3786 271.58C58.0613 271.34 57.6624 271.221 57.1818 271.221C56.8433 271.221 56.545 271.279 56.2869 271.395C56.0313 271.511 55.83 271.672 55.6832 271.878C55.5388 272.081 55.4666 272.313 55.4666 272.574C55.4666 272.766 55.508 272.934 55.5909 273.078C55.6738 273.223 55.785 273.347 55.9247 273.451C56.0668 273.553 56.223 273.64 56.3935 273.714C56.5663 273.787 56.7403 273.849 56.9155 273.898L57.6825 274.119C57.9145 274.183 58.1465 274.264 58.3786 274.364C58.6106 274.463 58.8224 274.589 59.0142 274.74C59.2083 274.889 59.3634 275.073 59.4794 275.29C59.5978 275.506 59.657 275.765 59.657 276.068C59.657 276.456 59.5563 276.806 59.3551 277.116C59.1539 277.426 58.8651 277.672 58.4886 277.854C58.1122 278.034 57.6612 278.124 57.1357 278.124C56.6409 278.124 56.2112 278.043 55.8466 277.879C55.482 277.714 55.1955 277.485 54.9872 277.194C54.7789 276.903 54.6617 276.565 54.6357 276.182H55.3175C55.3411 276.468 55.4358 276.711 55.6016 276.91C55.7673 277.109 55.9827 277.26 56.2479 277.364C56.513 277.466 56.8089 277.517 57.1357 277.517C57.4979 277.517 57.8198 277.457 58.1016 277.336C58.3857 277.213 58.6082 277.042 58.7692 276.825C58.9325 276.604 59.0142 276.349 59.0142 276.058C59.0142 275.811 58.9503 275.605 58.8224 275.44C58.6946 275.272 58.5159 275.131 58.2862 275.017C58.0589 274.903 57.795 274.803 57.4943 274.715L56.6243 274.46C56.0537 274.289 55.611 274.054 55.2962 273.753C54.9813 273.452 54.8239 273.069 54.8239 272.602C54.8239 272.212 54.928 271.868 55.1364 271.572C55.3471 271.274 55.6312 271.042 55.9886 270.876C56.3485 270.708 56.7521 270.624 57.1996 270.624C57.6518 270.624 58.0518 270.707 58.3999 270.873C58.7479 271.039 59.0237 271.267 59.2273 271.558C59.4332 271.847 59.5433 272.176 59.5575 272.545H58.9148ZM63.2543 278.114C62.7666 278.114 62.3416 277.992 61.9794 277.748C61.6196 277.504 61.3402 277.17 61.1413 276.746C60.9425 276.323 60.843 275.84 60.843 275.298C60.843 274.751 60.9437 274.264 61.1449 273.838C61.3485 273.412 61.6302 273.078 61.9901 272.837C62.3499 272.593 62.7678 272.471 63.2436 272.471C63.6082 272.471 63.9384 272.542 64.2344 272.684C64.5303 272.824 64.7741 273.021 64.9659 273.277C65.16 273.53 65.282 273.826 65.3317 274.165H64.6925C64.6262 273.857 64.4664 273.594 64.2131 273.376C63.9621 273.156 63.6425 273.046 63.2543 273.046C62.9063 273.046 62.5985 273.141 62.331 273.33C62.0634 273.517 61.8539 273.779 61.7024 274.115C61.5533 274.449 61.4787 274.836 61.4787 275.276C61.4787 275.719 61.5521 276.111 61.6989 276.452C61.8456 276.79 62.0516 277.055 62.3168 277.247C62.5843 277.439 62.8968 277.535 63.2543 277.535C63.4957 277.535 63.7159 277.49 63.9148 277.4C64.116 277.308 64.2841 277.177 64.419 277.009C64.5563 276.841 64.6487 276.641 64.696 276.409H65.3352C65.2879 276.738 65.1707 277.032 64.9837 277.29C64.799 277.545 64.5587 277.747 64.2628 277.893C63.9692 278.04 63.633 278.114 63.2543 278.114ZM68.2134 278.124C67.8844 278.124 67.5837 278.06 67.3114 277.933C67.0392 277.802 66.8226 277.615 66.6616 277.371C66.5006 277.125 66.4201 276.827 66.4201 276.477C66.4201 276.207 66.471 275.979 66.5728 275.795C66.6746 275.61 66.819 275.459 67.006 275.34C67.1931 275.222 67.4144 275.128 67.6701 275.06C67.9258 274.991 68.2075 274.938 68.5153 274.9C68.8207 274.862 69.0787 274.829 69.2894 274.8C69.5025 274.772 69.6647 274.727 69.7759 274.665C69.8872 274.604 69.9428 274.504 69.9428 274.367V274.239C69.9428 273.868 69.8316 273.575 69.609 273.362C69.3888 273.147 69.0716 273.039 68.6573 273.039C68.2643 273.039 67.9435 273.125 67.695 273.298C67.4487 273.471 67.2759 273.675 67.1765 273.909L66.5763 273.692C66.6995 273.394 66.8699 273.156 67.0877 272.979C67.3055 272.799 67.5494 272.67 67.8192 272.592C68.0891 272.511 68.3626 272.471 68.6396 272.471C68.8479 272.471 69.0645 272.498 69.2894 272.553C69.5167 272.607 69.7274 272.702 69.9215 272.837C70.1156 272.969 70.2731 273.155 70.3938 273.394C70.5146 273.631 70.5749 273.932 70.5749 274.296V278H69.9428V277.137H69.9038C69.828 277.298 69.7156 277.454 69.5664 277.606C69.4173 277.757 69.2302 277.882 69.0053 277.979C68.7804 278.076 68.5165 278.124 68.2134 278.124ZM68.2987 277.545C68.6348 277.545 68.926 277.471 69.1722 277.322C69.4184 277.173 69.6078 276.975 69.7404 276.729C69.8754 276.48 69.9428 276.207 69.9428 275.908V275.12C69.8955 275.165 69.8162 275.205 69.7049 275.241C69.596 275.276 69.4693 275.308 69.3249 275.337C69.1829 275.363 69.0408 275.385 68.8988 275.404C68.7567 275.423 68.6289 275.44 68.5153 275.454C68.2075 275.492 67.9447 275.551 67.7269 275.631C67.5091 275.712 67.3422 275.823 67.2262 275.965C67.1102 276.105 67.0522 276.285 67.0522 276.505C67.0522 276.836 67.1706 277.093 67.4073 277.276C67.6441 277.455 67.9412 277.545 68.2987 277.545ZM72.8885 274.591V278H72.2564V272.545H72.8707V273.401H72.9276C73.0554 273.122 73.2543 272.898 73.5241 272.73C73.7964 272.56 74.1326 272.474 74.5327 272.474C74.8996 272.474 75.2216 272.551 75.4986 272.705C75.7779 272.857 75.9946 273.08 76.1484 273.376C76.3047 273.672 76.3828 274.036 76.3828 274.467V278H75.7507V274.506C75.7507 274.058 75.6252 273.704 75.3743 273.444C75.1257 273.183 74.7919 273.053 74.3729 273.053C74.0864 273.053 73.8319 273.115 73.6094 273.238C73.3868 273.361 73.2105 273.539 73.0803 273.771C72.9524 274 72.8885 274.274 72.8885 274.591ZM80.9913 278V270.727H83.3386C83.8547 270.727 84.2856 270.827 84.6312 271.026C84.9792 271.222 85.2408 271.49 85.416 271.828C85.5936 272.167 85.6824 272.548 85.6824 272.972C85.6824 273.395 85.5948 273.778 85.4196 274.119C85.2444 274.457 84.984 274.726 84.6383 274.925C84.2927 275.121 83.863 275.219 83.3493 275.219H81.5027V274.623H83.3315C83.7127 274.623 84.0287 274.552 84.2797 274.41C84.5306 274.265 84.7176 274.069 84.8407 273.82C84.9662 273.572 85.0289 273.289 85.0289 272.972C85.0289 272.654 84.9662 272.371 84.8407 272.123C84.7176 271.874 84.5294 271.679 84.2761 271.537C84.0252 271.395 83.7067 271.324 83.3208 271.324H81.6554V278H80.9913ZM87.1099 278V272.545H87.7243V273.384H87.7704C87.8793 273.109 88.0687 272.888 88.3386 272.719C88.6109 272.549 88.9186 272.464 89.2619 272.464C89.314 272.464 89.372 272.465 89.4359 272.467C89.4998 272.47 89.5531 272.472 89.5957 272.474V273.117C89.5673 273.112 89.5176 273.105 89.4466 273.096C89.3755 273.086 89.2986 273.082 89.2157 273.082C88.9316 273.082 88.6783 273.142 88.4558 273.263C88.2356 273.381 88.0616 273.546 87.9338 273.756C87.8059 273.967 87.742 274.207 87.742 274.477V278H87.1099ZM92.6284 278.114C92.1573 278.114 91.7406 277.994 91.3784 277.755C91.0185 277.516 90.7368 277.186 90.5332 276.764C90.3296 276.34 90.2278 275.852 90.2278 275.298C90.2278 274.739 90.3296 274.248 90.5332 273.824C90.7368 273.398 91.0185 273.066 91.3784 272.83C91.7406 272.59 92.1573 272.471 92.6284 272.471C93.0995 272.471 93.515 272.59 93.8748 272.83C94.2347 273.069 94.5164 273.4 94.72 273.824C94.926 274.248 95.0289 274.739 95.0289 275.298C95.0289 275.852 94.9271 276.34 94.7235 276.764C94.5199 277.186 94.237 277.516 93.8748 277.755C93.515 277.994 93.0995 278.114 92.6284 278.114ZM92.6284 277.535C93.0072 277.535 93.3279 277.433 93.5907 277.229C93.8535 277.026 94.0524 276.755 94.1873 276.416C94.3246 276.078 94.3933 275.705 94.3933 275.298C94.3933 274.89 94.3246 274.516 94.1873 274.175C94.0524 273.835 93.8535 273.561 93.5907 273.355C93.3279 273.149 93.0072 273.046 92.6284 273.046C92.252 273.046 91.9312 273.149 91.666 273.355C91.4032 273.561 91.2032 273.835 91.0659 274.175C90.9309 274.516 90.8635 274.89 90.8635 275.298C90.8635 275.705 90.9309 276.078 91.0659 276.416C91.2032 276.755 91.4032 277.026 91.666 277.229C91.9288 277.433 92.2496 277.535 92.6284 277.535ZM98.3803 278.114C97.9329 278.114 97.5411 277.995 97.2049 277.759C96.8687 277.522 96.6059 277.192 96.4165 276.768C96.2295 276.344 96.136 275.85 96.136 275.287C96.136 274.726 96.2295 274.235 96.4165 273.813C96.6059 273.389 96.8699 273.06 97.2085 272.826C97.547 272.589 97.9412 272.471 98.391 272.471C98.7224 272.471 98.9982 272.53 99.2184 272.648C99.4386 272.764 99.6149 272.909 99.7475 273.082C99.8801 273.254 99.9831 273.423 100.056 273.586H100.113V270.727H100.749V278H100.131V276.988H100.056C99.9831 277.154 99.8789 277.324 99.744 277.499C99.609 277.672 99.4303 277.818 99.2077 277.936C98.9876 278.054 98.7118 278.114 98.3803 278.114ZM98.4549 277.535C98.8076 277.535 99.1083 277.439 99.3569 277.247C99.6055 277.053 99.7949 276.787 99.9251 276.448C100.058 276.107 100.124 275.717 100.124 275.276C100.124 274.841 100.059 274.456 99.9286 274.122C99.7984 273.786 99.609 273.523 99.3604 273.334C99.1119 273.142 98.81 273.046 98.4549 273.046C98.0903 273.046 97.7826 273.146 97.5316 273.344C97.283 273.541 97.0936 273.807 96.9634 274.143C96.8356 274.48 96.7717 274.857 96.7717 275.276C96.7717 275.7 96.8368 276.082 96.967 276.423C97.0972 276.764 97.2866 277.035 97.5352 277.237C97.7861 277.435 98.0927 277.535 98.4549 277.535ZM106.015 275.915V272.545H106.647V278H106.015V277.094H105.966C105.838 277.374 105.635 277.607 105.358 277.794C105.081 277.979 104.743 278.071 104.343 278.071C103.995 278.071 103.686 277.995 103.416 277.844C103.146 277.69 102.934 277.465 102.78 277.169C102.626 276.873 102.549 276.51 102.549 276.079V272.545H103.181V276.04C103.181 276.466 103.307 276.809 103.558 277.07C103.809 277.328 104.131 277.457 104.524 277.457C104.77 277.457 105.007 277.397 105.234 277.279C105.461 277.161 105.648 276.988 105.795 276.761C105.942 276.531 106.015 276.249 106.015 275.915ZM110.452 278.114C109.964 278.114 109.539 277.992 109.177 277.748C108.817 277.504 108.537 277.17 108.339 276.746C108.14 276.323 108.04 275.84 108.04 275.298C108.04 274.751 108.141 274.264 108.342 273.838C108.546 273.412 108.827 273.078 109.187 272.837C109.547 272.593 109.965 272.471 110.441 272.471C110.805 272.471 111.136 272.542 111.432 272.684C111.728 272.824 111.971 273.021 112.163 273.277C112.357 273.53 112.479 273.826 112.529 274.165H111.89C111.823 273.857 111.664 273.594 111.41 273.376C111.159 273.156 110.84 273.046 110.452 273.046C110.104 273.046 109.796 273.141 109.528 273.33C109.261 273.517 109.051 273.779 108.9 274.115C108.751 274.449 108.676 274.836 108.676 275.276C108.676 275.719 108.749 276.111 108.896 276.452C109.043 276.79 109.249 277.055 109.514 277.247C109.782 277.439 110.094 277.535 110.452 277.535C110.693 277.535 110.913 277.49 111.112 277.4C111.313 277.308 111.481 277.177 111.616 277.009C111.754 276.841 111.846 276.641 111.893 276.409H112.532C112.485 276.738 112.368 277.032 112.181 277.29C111.996 277.545 111.756 277.747 111.46 277.893C111.166 278.04 110.83 278.114 110.452 278.114ZM116.036 272.545V273.096H113.433V272.545H116.036ZM114.246 271.239H114.882V276.576C114.882 276.803 114.921 276.982 114.999 277.112C115.077 277.24 115.179 277.331 115.304 277.386C115.43 277.438 115.563 277.464 115.705 277.464C115.788 277.464 115.859 277.459 115.919 277.45C115.978 277.438 116.03 277.426 116.075 277.414L116.21 277.986C116.148 278.009 116.072 278.031 115.982 278.05C115.892 278.071 115.781 278.082 115.649 278.082C115.417 278.082 115.193 278.031 114.977 277.929C114.764 277.827 114.589 277.676 114.452 277.474C114.315 277.273 114.246 277.023 114.246 276.725V271.239Z" fill="black"/>
<rect x="2.5" y="2.5" width="165" height="295" rx="17.5" stroke="black" stroke-width="5"/>
<rect x="68" y="7" width="34" height="10" rx="5" fill="black"/>
</svg>
