<svg width="800" height="500" viewBox="0 0 800 500" fill="none" xmlns="http://www.w3.org/2000/svg">
<circle cx="66.5" cy="116.5" r="7.5" fill="#aaa"/>
<circle cx="87.5" cy="116.5" r="7.5" fill="#aaa"/>
<circle cx="108.5" cy="116.5" r="7.5" fill="#aaa"/>
<ellipse cx="129.5" cy="117" rx="7.5" ry="7" fill="#aaa"/>
<ellipse cx="150.5" cy="117" rx="7.5" ry="7" fill="#aaa"/>
<circle cx="66.5" cy="87.5" r="7.5" fill="#aaa"/>
<circle cx="87.5" cy="87.5" r="7.5" fill="#aaa"/>
<circle cx="108.5" cy="87.5" r="7.5" fill="#aaa"/>
<ellipse cx="129.5" cy="88" rx="7.5" ry="7" fill="#aaa"/>
<ellipse cx="150.5" cy="88" rx="7.5" ry="7" fill="#aaa"/>
<circle cx="116.5" cy="409.5" r="7.5" fill="#aaa"/>
<circle cx="137.5" cy="409.5" r="7.5" fill="#aaa"/>
<circle cx="158.5" cy="409.5" r="7.5" fill="#aaa"/>
<ellipse cx="179.5" cy="410" rx="7.5" ry="7" fill="#aaa"/>
<ellipse cx="200.5" cy="410" rx="7.5" ry="7" fill="#aaa"/>
<circle cx="116.5" cy="380.5" r="7.5" fill="#aaa"/>
<circle cx="137.5" cy="380.5" r="7.5" fill="#aaa"/>
<circle cx="158.5" cy="380.5" r="7.5" fill="#aaa"/>
<ellipse cx="179.5" cy="381" rx="7.5" ry="7" fill="#aaa"/>
<ellipse cx="200.5" cy="381" rx="7.5" ry="7" fill="#aaa"/>
<circle cx="116.5" cy="350.5" r="7.5" fill="#aaa"/>
<circle cx="137.5" cy="350.5" r="7.5" fill="#aaa"/>
<circle cx="158.5" cy="350.5" r="7.5" fill="#aaa"/>
<ellipse cx="179.5" cy="351" rx="7.5" ry="7" fill="#aaa"/>
<ellipse cx="200.5" cy="351" rx="7.5" ry="7" fill="#aaa"/>
<circle cx="116.5" cy="321.5" r="7.5" fill="#aaa"/>
<circle cx="137.5" cy="321.5" r="7.5" fill="#aaa"/>
<circle cx="158.5" cy="321.5" r="7.5" fill="#aaa"/>
<ellipse cx="179.5" cy="322" rx="7.5" ry="7" fill="#aaa"/>
<ellipse cx="200.5" cy="322" rx="7.5" ry="7" fill="#aaa"/>
<ellipse cx="427.5" cy="131" rx="7.5" ry="7" fill="#aaa"/>
<ellipse cx="448.5" cy="131" rx="7.5" ry="7" fill="#aaa"/>
<ellipse cx="427.5" cy="102" rx="7.5" ry="7" fill="#aaa"/>
<ellipse cx="448.5" cy="102" rx="7.5" ry="7" fill="#aaa"/>
<circle cx="656.5" cy="372.5" r="7.5" fill="#aaa"/>
<ellipse cx="677.5" cy="373" rx="7.5" ry="7" fill="#aaa"/>
<ellipse cx="698.5" cy="373" rx="7.5" ry="7" fill="#aaa"/>
<circle cx="656.5" cy="342.5" r="7.5" fill="#aaa"/>
<ellipse cx="677.5" cy="343" rx="7.5" ry="7" fill="#aaa"/>
<ellipse cx="698.5" cy="343" rx="7.5" ry="7" fill="#aaa"/>
<circle cx="656.5" cy="313.5" r="7.5" fill="#aaa"/>
<ellipse cx="677.5" cy="314" rx="7.5" ry="7" fill="#aaa"/>
<ellipse cx="698.5" cy="314" rx="7.5" ry="7" fill="#aaa"/>
<circle cx="656.5" cy="254.5" r="7.5" fill="#aaa"/>
<circle cx="677.5" cy="254.5" r="7.5" fill="#aaa"/>
<circle cx="698.5" cy="254.5" r="7.5" fill="#aaa"/>
<ellipse cx="719.5" cy="255" rx="7.5" ry="7" fill="#aaa"/>
<ellipse cx="740.5" cy="255" rx="7.5" ry="7" fill="#aaa"/>
<circle cx="656.5" cy="225.5" r="7.5" fill="#aaa"/>
<circle cx="677.5" cy="225.5" r="7.5" fill="#aaa"/>
<circle cx="698.5" cy="225.5" r="7.5" fill="#aaa"/>
<ellipse cx="719.5" cy="226" rx="7.5" ry="7" fill="#aaa"/>
<ellipse cx="740.5" cy="226" rx="7.5" ry="7" fill="#aaa"/>
</svg>
